<?xml version="1.0" standalone="no"?>
<!DOCTYPE svg PUBLIC "-//W3C//DTD SVG 20010904//EN"
 "http://www.w3.org/TR/2001/REC-SVG-20010904/DTD/svg10.dtd">
<svg version="1.0" xmlns="http://www.w3.org/2000/svg"
 width="207.000000pt" height="237.000000pt" viewBox="0 0 207.000000 237.000000"
 preserveAspectRatio="xMidYMid meet">

<g transform="translate(0.000000,237.000000) scale(0.100000,-0.100000)"
fill="#0C52A1" stroke="none">
<path d="M998 2200 c-9 -6 -32 -43 -52 -83 -44 -92 -133 -180 -233 -230 -108
-55 -105 -97 11 -155 89 -46 172 -127 219 -218 43 -84 56 -97 94 -92 24 3 33
14 62 73 46 93 151 198 244 244 67 33 87 59 74 95 -3 8 -39 31 -79 53 -96 50
-186 140 -232 232 -43 84 -69 103 -108 81z"/>
<path d="M1670 1584 c-185 -43 -459 -183 -595 -306 l-50 -46 -52 48 c-112 102
-307 209 -504 275 -161 54 -232 43 -283 -45 -20 -34 -21 -50 -21 -420 l0 -385
28 -57 c40 -82 83 -109 263 -167 242 -78 349 -136 476 -257 90 -87 96 -87 188
-1 123 117 257 189 485 263 164 53 220 88 256 161 l24 48 0 390 c0 423 -2 437
-55 475 -42 30 -97 38 -160 24z m-1184 -175 c60 -22 145 -59 189 -82 94 -49
225 -145 260 -191 l25 -33 0 -356 c0 -231 -4 -357 -10 -357 -5 0 -32 16 -59
35 -80 58 -222 123 -384 176 -119 39 -158 56 -179 80 l-28 29 0 376 0 377 38
-7 c21 -3 88 -24 148 -47z m1266 1 c9 -65 8 -630 -2 -674 -14 -64 -42 -82
-184 -127 -147 -46 -325 -127 -402 -182 -28 -20 -56 -37 -63 -37 -8 0 -11 98
-11 357 l0 357 60 58 c102 100 259 189 460 263 122 44 133 43 142 -15z"/>
</g>
</svg>
